<svg viewBox="0 0 68 68" xmlns="http://www.w3.org/2000/svg">
    <path
        d="M32.4 2c-1.7 0-2.1.3-2.7.9H29c-1.3 0-3.1.2-4.5 1.2-1.4.9-2.1 2.6-1.3 3.8 0 0 .5-.7 2.2-.7h.8c2.3.3 4 1.5 3.8 4.7s-1.4 6.8-6.3 6.8c0 0-.6 0-1.3-.1-2.3-.2-3-1.7-3-1.7s2-.5 2-3c0-1.7-1.5-3.3-3.6-3.9-.7-.2-1.5-.3-2.3-.3-2.5 0-5.4 1.1-7.3 3.6-4.4 5.7-4.8 14-3.7 21.8s6 15 6.1 15.2c.1.1.2.2.3.2s.1 0 .2-.1c2.1-2.1 4.2-4.9 5-6.8.9.7.4 2.3-.1 4s-1.7 4-2.1 4.7c-.4.7-1 1.6-.2 2 .1 0 .2.1.3.1 1 0 3.2-1.7 5.7-5 2.8-3.8 4.2-7.1 4.2-7.1.2 0 .5.4.5 1.3 0 1-1 4.5-3 7.9-1.9 3.3-3.7 5.4-4.1 5.9-.2.3 0 .4.1.6.1.1 3.6 3.3 8.6 6 5.9 3.2 8.5 3.7 8.5 3.7s2.6-.6 8.5-3.7c5-2.7 8.5-5.9 8.6-6.1.1-.1.3-.3.1-.6-.3-.5-2.1-2.5-4.1-5.9-1.9-3.3-2.9-6.9-3-7.9 0-1 .3-1.3.5-1.4 0 0 1.4 3.4 4.2 7.1 2.5 3.3 4.7 5 5.7 5 .1 0 .2 0 .3-.1.7-.4.2-1.3-.2-2s-1.6-3-2.1-4.7-1-3.3 0-4c.9 1.9 2.9 4.7 5 6.8.1.1.1.1.2.1s.2-.1.3-.2c.2-.2 5.1-7.4 6.2-15.2 1.1-7.8.7-16.1-3.6-21.8-1.9-2.5-4.8-3.6-7.3-3.6-.8 0-1.6.1-2.2.3-2.2.6-3.6 2.2-3.6 3.9 0 2.5 2 3 2 3s-.7 1.4-3 1.7c-.4.1-.9.1-1.3.1-1.8 0-3.3-.6-4.7-2.5-1.3-1.9-1.3-5.7-1.4-7-.1-1.3-.3-4.2-1.7-5.4s-3-1.6-5.1-1.7c-.1.1-.3.1-.4.1"
        fill="#00afe9" />
</svg>