<svg id="Layer_1" version="1.1" viewBox="0 0 68 68" x="0" xmlns="http://www.w3.org/2000/svg" y="0"
    xml:space="preserve"><style>.st0{fill:#1e357a}</style>
    <g id="g585"><g id="g591" transform="translate(1022.027 101.061)"><path class="st0" d="M-983.3-81.6c0-2.8-2.3-5.1-5.1-5.1s-5.1 2.3-5.1 5.1 2.3 5.1 5.1 5.1c2.9-.1 5.1-2.3 5.1-5.1" id="path593"/></g></g>
    <g id="g597"><g id="g603" transform="translate(1022.027 87.802)"><path class="st0" d="M-983.3-38.3c0-2.8-2.3-5.1-5.1-5.1s-5.1 2.3-5.1 5.1 2.3 5.1 5.1 5.1c2.9 0 5.1-2.3 5.1-5.1" id="path605"/></g></g>
    <g id="g609"><g id="g615" transform="translate(1011.308 94.41)"><path class="st0" d="M-996.9-59.9c0-2.8-2.3-5.1-5.1-5.1s-5.1 2.3-5.1 5.1 2.3 5.1 5.1 5.1c2.9 0 5.1-2.3 5.1-5.1" id="path617"/></g></g>
    <g id="g621"><g id="g627" transform="translate(1032.908 94.411)"><path class="st0" d="M-969.4-59.9c0-2.8-2.3-5.1-5.1-5.1s-5.1 2.3-5.1 5.1 2.3 5.1 5.1 5.1 5.1-2.3 5.1-5.1" id="path629"/></g></g>
    <g id="g633"><g id="g639" transform="translate(1029.867 98.373)"><path class="st0" d="M-973.3-72.8v-9.5L-996-68.6h-.1l-22.9-13.8v9.5l15 9-15 9v9.5l22.9-13.8 22.9 13.8v-9.5l-15-9 14.9-8.9z" id="path641"/></g></g></svg>