<svg id="Layer_1" version="1.1" viewBox="0 0 68 68" x="0" xmlns="http://www.w3.org/2000/svg" y="0"
    xml:space="preserve"><style>.st0{fill:#fff}.st1{fill:#03426a}</style>
    <path class="st0" d="M0 40.2h68v27.6H0z" />
    <path class="st1" d="M0 0h68v42.6H0z" />
    <path class="st0"
        d="M15.175 32.396c0 1.838-.986 2.745-3.193 2.745H8.509v-6.879h3.361c2.666 0 3.305 1.3 3.305 2.723v1.411zm1.423-.056v-1.176c0-3.753-2.958-3.899-4.94-3.899H7.074v8.895h4.974c3.91 0 4.549-2.117 4.549-3.82M24.35 33.965c0 .515-.045.985-.639 1.198-.347.135-.84.18-1.669.18-.829 0-1.322-.079-1.613-.27-.202-.123-.28-.324-.28-.75 0-.538.134-.84.392-.963.258-.124.583-.146 1.59-.146h2.219v.75zm1.344 2.195v-3.495c0-.66 0-1.12-.056-1.456-.067-.348-.179-.594-.459-.807-.65-.504-2.24-.515-3.025-.515-.594 0-2.207.067-2.8.571-.202.168-.247.37-.247.616 0 .157.022.37.034.65h1.31c.023-.157.056-.538.202-.694.18-.169.482-.236 1.378-.236 1.03 0 1.748.034 2.05.202.28.157.269.493.269.75v.605h-3.025c-.818 0-1.759.023-2.274.729-.235.302-.336.694-.336 1.198 0 1.48.907 1.972 3.238 1.972 1.21 0 2.005-.19 2.487-.605l.123.515h1.131M33.805 36.16v-3.405c0-1.176-.056-1.423-.336-1.636-.269-.202-.807-.325-1.624-.325-.717 0-1.457.09-2.151.28v5.086H28.36v-6.228h1.198l.09.448c.269-.146.47-.258.75-.336.449-.135 1.009-.202 1.76-.202.85 0 1.512.134 2.016.359.493.212.762.616.862 1.086.068.325.101.605.101 1.31v3.563h-1.333M43.697 35.78c-.616.313-1.624.448-2.935.448-.907 0-1.658-.068-2.24-.224-.628-.146-.941-.437-.975-.975-.022-.28 0-.527.034-.863h1.288c.045.314.045.415.056.482.045.291.022.448.37.56.336.101.873.146 1.557.146.851 0 1.445-.09 1.837-.269.28-.123.415-.347.415-.773 0-.493-.101-.695-.617-.773-.156-.034-.313-.034-.481-.045-.09-.011-.381-.011-.852-.022-.224 0-.481-.023-.784-.034-1.333-.067-2.745-.123-2.745-1.68 0-1.412.863-1.905 3.238-1.905.605 0 1.344.045 1.792.101.516.067.908.157 1.188.314.314.179.414.46.414.952 0 .134 0 .269-.022.482h-1.3l-.055-.28c-.068-.336-.09-.404-.202-.482-.19-.146-.762-.213-1.569-.213-.806 0-1.265.034-1.635.168-.347.123-.504.347-.504.796 0 .302.112.526.257.627.348.213 2.185.19 2.812.202.673.01 1.11.067 1.49.201.684.235.953.683.953 1.59 0 .73-.236 1.189-.785 1.468M51.92 36.16l-3.215-2.946h-.47v2.946H46.89v-8.895h1.344v5.064h.471l2.666-2.397h1.569l-3.104 2.744 3.865 3.484h-1.78M60.334 32.441h-4.291c.045-.784.213-1.131.515-1.356.314-.224.885-.336 1.725-.336 1.166 0 1.715.258 1.916.796.079.224.135.437.135.896zm1.232 1.77h-1.322c-.045.19-.067.672-.246.852-.202.201-.605.29-1.68.29-1.065 0-1.648-.145-1.95-.447-.224-.224-.359-.695-.359-1.423v-.168h5.59c.012-.303.034-.381.034-.628 0-1.03-.146-1.602-.594-2.038-.504-.527-1.478-.785-2.823-.785-1.714 0-2.767.392-3.204 1.255-.257.493-.403 1.187-.403 2.05 0 1.356.358 2.207 1.154 2.633.493.269 1.344.426 2.43.437.908 0 1.637-.045 2.432-.28.773-.247.963-.684.963-1.053 0-.09 0-.392-.022-.695" />
    <g><path class="st1" d="M23.418 51.997c0 1.324-.747 1.596-2.286 1.596h-3.407V50.74H21.3c1.37 0 2.117.125 2.117 1.257zm1.777 4.188c0-1.11-.634-1.924-2.15-2.162V54c1.177-.306 1.81-.917 1.81-1.879 0-1.584-.77-2.388-2.954-2.388h-5.625v8.987h5.852c1.97 0 3.067-.894 3.067-2.535zm-1.449.102c0 1.279-.905 1.403-2.309 1.403h-3.712v-3.079h3.893c1.664 0 2.128.532 2.128 1.676M32.541 56.502c0 .52-.034.996-.634 1.21-.35.136-.849.182-1.686.182-.838 0-1.336-.08-1.63-.272-.204-.124-.283-.328-.283-.758 0-.544.136-.85.407-.974.25-.124.577-.147 1.607-.147h2.219v.759zm1.37 2.218V55.19c0-.668 0-1.132-.057-1.472-.068-.35-.181-.6-.464-.815-.657-.51-2.264-.52-3.056-.52-.6 0-2.23.067-2.83.577-.204.17-.249.373-.249.622 0 .159.023.374.034.657h1.324c.034-.159.057-.543.204-.702.181-.17.487-.238 1.392-.238 1.042 0 1.766.034 2.072.204.283.159.26.498.26.758v.612h-3.045c-.826 0-1.777.022-2.298.735-.226.306-.34.702-.34 1.211 0 1.495.918 1.993 3.272 1.993 1.234 0 2.026-.193 2.513-.612l.124.521h1.144M41.766 58.72v-3.44c0-1.19-.057-1.438-.34-1.653-.271-.204-.815-.329-1.641-.329-.724 0-1.471.09-2.173.283v5.14h-1.347v-6.294h1.21l.103.453c.26-.148.464-.26.758-.34.442-.136 1.008-.204 1.766-.204.86 0 1.528.136 2.037.363.498.215.77.622.883 1.097.068.329.09.612.09 1.325v3.599h-1.346M50.549 58.72l-3.248-2.977h-.487v2.977h-1.347v-8.987h1.347v5.116h.487l2.693-2.422h1.574L48.432 55.2l3.905 3.52H50.55"/></g></svg>