<svg id="Layer_1" version="1.1" viewBox="0 0 68 68" x="0" xmlns="http://www.w3.org/2000/svg" y="0"
    xml:space="preserve"><style>.st1{fill:#fff}</style>
    <path d="M0 0h68v68H0z" fill="#15569c" />
    <g id="_x23_15569cff"><path class="st1" d="M8.2 21h21.2c.3.2.6.4.9.7H9c-.3-.2-.6-.4-.8-.7zM40.5 21h21.1c-.1.4-.6.7-1 .7h-21c.3-.2.7-.5.9-.7zM10 22.6h20.9c.5-.1.8.4 1.2.7H10.8c-.3-.2-.5-.5-.8-.7zM37.9 23.3c.3-.2.5-.5.8-.7H60c-.3.2-.5.5-.8.7H37.9zM11.8 24.2h21.4c.3.2.5.4.8.7H13.1c-.5.1-.9-.5-1.3-.7zM36.1 24.8l.7-.7h21.3c-.3.2-.6.5-.9.7-7 0-14.1.1-21.1 0zM13.7 25.7h21.2c.4.1.6.5 1 .7H14.6c-.4-.2-.6-.4-.9-.7zM36.3 25.7h20c-.4.2-.7.8-1.3.7H37l-.7-.7zM15.5 27.3h21.2c.3.1.6.4.9.7H16.4c-.3-.2-.6-.5-.9-.7zM38.1 27.3h16.4c-.3.2-.6.5-.9.7H39c-.3-.3-.6-.5-.9-.7zM17.4 28.8h21.2c.3.2.5.4.8.7H18.1c-.2-.2-.5-.4-.7-.7zM40 28.8h12.6c-.3.2-.6.6-.9.7h-11c-.2-.2-.4-.5-.7-.7zM8 31h2.9v2.9h3V31h3v8.1h-3V36h-3v3.1H8V31zM17.2 39.1c1.2-2.7 2.4-5.5 3.6-8.2h2.8c1.2 2.7 2.4 5.5 3.6 8.2h-3c-.2-.4-.4-.9-.6-1.4h-3c-.2.5-.4.9-.6 1.4h-2.8m4.4-3.1h1.3l-.6-1.5c-.3.5-.5 1-.7 1.5zM27.5 31h3v6.1h2.9v2.1h-5.9V31zM33.9 31h2.9v8.2h-2.9V31zM37.9 31h5.7v1.9h-2.7V34h2.7v2h-2.7v3.2h-3V31zM46.2 31H49c1 2.3 2 4.6 3.1 6.9.7-.9 1.5-1.9 2.3-2.8-1.1-1.4-2.2-2.7-3.2-4.1H55c.5.6.9 1.2 1.4 1.7.5-.6.9-1.2 1.4-1.7h3.3c-1 1.3-2.1 2.5-3.1 3.9 1.1 1.4 2.2 2.9 3.3 4.3-1.3 0-2.5.1-3.8 0-.5-.7-1-1.3-1.5-1.9-.5.7-1.1 1.3-1.6 2-1.6 0-3.2.1-4.7 0-.2-.5-.4-.9-.6-1.4h-2.9c-.2.4-.4.9-.6 1.4h-2.9c1.1-2.9 2.3-5.6 3.5-8.3m1.5 3.5c-.2.5-.4 1-.7 1.5h1.3l-.6-1.5zM18.1 40.5h11c.3.2.5.4.8.7H17.3c.3-.3.5-.5.8-.7zM30.5 40.5h21.2c.3.2.6.4.8.7H31.3c-.3-.2-.5-.5-.8-.7zM15.4 42.7c.4-.2.7-.7 1.2-.7h14.2c.4.1.6.5 1 .7H15.4zM32.3 42h21.3c.3.2.6.4.8.7H33.1c-.3-.2-.5-.4-.8-.7zM14.5 43.6h18.2c.3.2.6.4.8.7h-20c.4-.2.7-.5 1-.7zM34.1 43.6h21.2c.4.1.6.4 1 .7H35c-.3-.2-.6-.5-.9-.7zM11.7 45.8c.3-.2.6-.5.9-.7h21.2c-.3.2-.5.5-.8.7H11.7zM35.9 45.2h21.3c.3.2.6.4.9.7H36.7c-.2-.3-.5-.5-.8-.7zM10 47.4c.3-.2.5-.4.8-.7h21.3c-.4.2-.6.8-1.1.7H10zM37.8 46.7h21.3c.3.2.6.4.8.7h-21c-.5.1-.7-.5-1.1-.7zM9 48.3h21.2c-.3.2-.5.5-.8.7H8.2c.2-.3.5-.5.8-.7zM39.6 48.3h21c.5-.1.7.5 1.1.7H40.5c-.3-.3-.6-.5-.9-.7z"/></g></svg>