<svg viewBox="0 0 68 68" xmlns="http://www.w3.org/2000/svg">
    <path d="M0 0h68v68H0z" fill="#006bb6" />
    <path
        d="M12.8 25.7l2.4 5.1.1-.1c-.1-4.7 2.3-8.1 6.5-10.1 4.4-2 8-1.5 11.8 1.5-.1-4.7 2.9-8.4 7-10.3 3-1.4 6.7-1.8 9.7-.3 3.4 1.6 4.8 5.6 6.3 8.9l9.6 20.7-9.6 4.5L48.4 28c-.6-1.3-2-4.7-2.9-5.7-1.5-1.9-3.4-1.7-5.4-.8-1.7.8-3.1 2.6-3 4.5 0 1.9 1.3 4.5 2.2 6.3L47.5 50 38 54.6l-8.2-17.7c-1.6-3.5-3.3-8.9-8.3-6.6s-2.6 7.2-.9 10.9l8.2 17.7-9.6 4.5L3.7 30l9.1-4.3z"
        fill="#fff" />
</svg>