<svg viewBox="0 0 68 68" xmlns="http://www.w3.org/2000/svg">
    <path d="M68.1 48.8c0 .8-.3 1.6-.9 2.2L53 65.2c-.8.8-2.2.2-2.2-.9V32.6l17-16.9h.2v33.1"
        fill="#e83860" />
    <path d="M56.8 4.4c-.5-.5-1.3-.5-1.8 0l-21 21h-.3v23.7l.3.6 16.9-16.9 17.2-17.2L56.8 4.4"
        fill="#dfc586" />
    <path d="M-.1 48.8c0 .8.3 1.6.9 2.2L15 65.2c.8.8 2.2.2 2.2-.9V32.6L.2 15.7H0l-.1 33.1"
        fill="#327787" />
    <path d="M13 4.4c-.5-.5-1.3-.5-1.8 0L-.1 15.7l17.2 17.2L34 49.8V25.4l-21-21" fill="#8abb9c" />
</svg>