<svg id="Layer_1" version="1.1" viewBox="0 0 68 68" x="0" xmlns="http://www.w3.org/2000/svg" y="0"
    xml:space="preserve"><style>.st0{fill:#fff}</style>
    <path d="M0 0h68v68H0z" />
    <path class="st0"
        d="M20.5 24.6l-8.8 21.5h-.8L2.1 24.6v21.5H0V21.9h3.1L11.3 42l8.2-20.1h3.1v24.2h-2.1V24.6zM47.5 46.1h-2.9c-.8-.7-1.9-1.8-3-2.9-1.7 1.9-4.1 3.3-7.2 3.3-4 0-7.3-2.3-7.3-6.6 0-3.8 2.6-5.8 5.4-7.4-1.2-1.9-2-3.8-2-5.5 0-3.2 2.6-5.5 5.7-5.5 3 0 5.1 1.6 5.1 4.6 0 3.6-3.2 5.2-6.2 6.9 1.1 1.5 2.2 2.8 3.1 3.8 1.1 1.3 2.2 2.4 3.3 3.6 1.5-2.2 2.3-4.6 2.7-5.9l1.7.7c-.8 1.9-1.7 4.4-3.2 6.5 1.6 1.4 3 2.8 4.8 4.4zm-7.1-4.2c-1.5-1.5-2.9-3-3.6-3.9-1.1-1.2-2.3-2.7-3.3-4.1-2.3 1.4-4.2 3-4.2 5.9 0 3.3 2.6 5 5.4 5 2.3.1 4.2-1.2 5.7-2.9zm-6.1-10.3c2.8-1.4 5.3-2.8 5.3-5.5 0-2-1.4-3-3.2-3-2.1 0-3.8 1.6-3.8 4 0 1.4.8 3 1.7 4.5zM51.9 41.1c1.6 1.8 4.1 3.5 7.6 3.5 5 0 6.4-2.8 6.4-4.8 0-3.4-3.2-4.4-6.6-5.3-3.8-1.1-7.9-2.1-7.9-6.6 0-4 3.6-6.5 8-6.5 3.6 0 6.3 1.3 8.2 3.4l-1.4 1.5c-1.7-2.1-4.2-3-6.9-3-3.2 0-5.7 1.9-5.7 4.5 0 2.9 3 3.7 6.3 4.6 3.9 1.1 8.2 2.4 8.2 7.3 0 3.1-2.1 6.9-8.6 6.9-4 0-7-1.6-8.9-3.8l1.3-1.7z" /></svg>