<svg viewBox="0 0 68 68" xmlns="http://www.w3.org/2000/svg">
    <path
        d="M51.5 47.6v-3.2c0-.8-.7-1.5-1.5-1.5s-1.5.7-1.5 1.5v3.2c0 .8.7 1.5 1.5 1.5s1.5-.7 1.5-1.5M60.9 32l-9.7-9.8c-.6-.6-1-1.5-1-2.4V8.9c0-1.9-1.6-3.5-3.5-3.5h-6.9c-1.9 0-3.4 1.5-3.4 3.4v3.3c0 .6-.5 1.1-1.1 1.1h-3.7c-1.1 0-2.1.8-2.2 1.9 0 .9-.4 1.6-1.9 1.3h-.2c-9.6-1.8-18.8 4.5-20.6 14-1.3 6.7 1.4 13.6 7 17.6.6.5 1.5.3 2-.3l10-15c.7-1 1.7-1.6 2.9-1.7H40c.6 0 1.1-.5 1.1-1.1v-.3c-1.1-4.8-4.2-9-8.5-11.4-.5-.3-.8-1-.5-1.5.2-.4.6-.6 1-.6h3.7c1.4 0 2.5-1 2.6-2.4V9.6c0-.6.5-1.1 1.1-1.1h5.6c.6 0 1.1.5 1.1 1.1v23.6c0 .6.5 1.1 1.1 1.1h9.8c.6 0 1.1.5 1.1 1.1v15.7c0 .6-.4 1.1-1 1.1h-8.8c-1.3 0-2.4 1-2.5 2.4v4.2c0 .6-.5 1.1-1.1 1.1h-9.5v-4.6c0-.8-.7-1.5-1.5-1.5s-1.5.7-1.5 1.5V60H21.7c-.6 0-1.1-.5-1.1-1.1v-7.2c0-.6.5-1.1 1.1-1.1h13.4c.7 0 1.2-.8 1.2-.8L45.6 36c.3-.5.2-1.2-.4-1.5-.1-.1-.3-.1-.5-.2H29c-.6 0-.9.4-1.2.9l-9.4 14.1c-.5.7-.7 1.5-.8 2.4v7.7c0 2 1.6 3.6 3.6 3.5h26.2c1.4 0 2.5-1.1 2.5-2.5v-4c0-.6.5-1.1 1.1-1.1h7c2.1 0 3.8-1.7 3.9-3.7V34.9c.1-1.1-.3-2.2-1-2.9"
        fill="#0b4585" />
</svg>