<svg id="Layer_1" version="1.1" viewBox="0 0 68 68" x="0" xmlns="http://www.w3.org/2000/svg" y="0"
    xml:space="preserve"><style>.st0{fill:#cf002c}.st1{fill:#dd3e56}</style>
    <path class="st0"
        d="M46.7 46.2l6.8 11.9c.1.1.2.3.4.4.5.3 1.2.1 1.5-.4l7.4-12.7c.3-.6.3-1.3 0-1.9L54.9 30c-.1-.1-.3-.2-.4-.2-.2 0-.3.1-.4.2l-7.3 12.7c-.6 1.1-1.8 1.7-3 1.7h-.1c1.2.1 2.4.8 3 1.8"
        id="path286" />
    <path class="st1"
        d="M29 44.4c-.2 0-.3.1-.4.3-.1.1-.1.3 0 .5l7.8 13.6c.3.6 1 .9 1.6.9h15.2c.8 0 1.4-.4 1.8-1.1l.3-.6-6.9-13.6H29z"
        id="path284" />
    <path class="st0"
        d="M18.6 44.4H4.9c-.2 0-.4 0-.5.1-.5.3-.7 1-.4 1.5l7.3 12.6c.3.6 1 .9 1.6 1h15.6c.3 0 .5-.3.5-.5v-.2l-7.3-12.6c-.6-1.1-.6-2.4 0-3.5v-.1c-.8 1-1.9 1.7-3.1 1.7"
        id="path282" />
    <path class="st0"
        d="M34.1 21.1L41 9.3c0-.2.1-.3.1-.5 0-.6-.5-1.1-1.1-1.1H25.5c-.7 0-1.3.3-1.6.9L16 22.1c-.1.2-.1.3 0 .5.1.1.2.2.4.3H31c1.2 0 2.4.7 3 1.7v.1c-.6-1.1-.6-2.5.1-3.6"
        id="path278" />
    <path class="st1"
        d="M28.9 30.1c.1-.2.1-.3 0-.5-.1-.1-.2-.2-.4-.3H12.8c-.7 0-1.3.4-1.6.9L3.6 43.5c-.4.7-.4 1.5 0 2.1l.4.6 16.6-1.4 1.1-2.1 7.2-12.6z"
        id="path280" />
    <path class="st1"
        d="M41.4 37.3c.1.1.2.2.4.2s.3-.1.4-.2l7.9-13.6c.3-.6.3-1.3 0-1.9L42.5 8.7c-.4-.6-1.1-1-1.8-1H40l-7.2 14.8 1.4 2.3 7.2 12.5z"
        id="path268" /></svg>