<svg viewBox="0 0 68 68" xmlns="http://www.w3.org/2000/svg">
    <linearGradient gradientUnits="userSpaceOnUse" id="a" x1="39.124" x2="29.725" y1="16.922"
        y2="33.202">
        <stop offset="0" stop-color="#52c3e7" />
        <stop offset="1" stop-color="#0089cc" />
    </linearGradient>
    <path
        d="M35.115 15.685h-3.061c-.279 1.253-.418 2.505-.557 3.758L29.271 32.94h3.757c4.87 0 8.488-4.035 8.488-10.158 0-4.314-2.505-7.097-6.401-7.097z"
        fill="url(#a)" />
    <linearGradient gradientUnits="userSpaceOnUse" id="b" x1="53.638" x2="16.106" y1="4.417"
        y2="69.425">
        <stop offset="0" stop-color="#52c3e7" />
        <stop offset="1" stop-color="#0089cc" />
    </linearGradient>
    <path
        d="M53.783 38.896c11.712-8.75 9.58-18.619 9.58-18.619C62.526 8.45 52.368.38 37.897.38c0 0-17.672.696-20.873 1.391-3.757.835-6.4 4.314-6.122 8.071 0 2.644-.14 5.427-.696 8.35L5.058 51.307c-.417 1.948-1.391 7.931 2.366 12.384 1.53 1.81 4.314 3.896 9.184 3.896 2.226 0 8.21-.278 13.08-2.504 1.252-.557 2.366-1.53 3.2-2.644 2.644 3.061 6.54 5.288 12.246 5.288 5.01 0 9.88-1.253 14.332-3.48 0 0 4.297-3.094 2.546-7.616-3.885-5.628-8.229-17.736-8.229-17.736zm-.3 19.648c-2.644.835-5.566 1.391-8.35 1.252-2.782 0-6.54-.696-8.905-7.514l-4.035-11.689h-4.036l-1.809 11.132a17.273 17.273 0 00-.417 3.757v.279c0 .695.14 1.391.417 2.087-3.06 1.391-7.235 1.809-9.74 1.809-2.087 0-4.035-.696-4.175-4.314 0-.974.14-1.948.279-2.922l5.148-33.118c.418-2.504.696-5.148.696-7.653V9.006c1.67-.417 7.653-1.113 13.08-1.113h5.984c3.617-.14 7.096.696 10.436 2.087.835.418 1.809.974 2.505 1.53.695.558 1.391 1.253 2.087 1.949.835 1.113 1.53 2.226 2.087 3.618.418 1.391.696 2.783.696 4.314v1.252c-.418 6.123-4.314 11.132-10.297 14.332l5.427 14.333c1.53 3.896 2.504 5.427 4.174 6.68-.417.277-.835.417-1.252.556z"
        fill="url(#b)" />
</svg>