<svg id="Layer_1" version="1.1" viewBox="0 0 68 68" x="0" xmlns="http://www.w3.org/2000/svg" y="0"
    xml:space="preserve"><style>.st3{fill:#005c9e}.st5{fill:#fff}</style>
    <path
        d="M50.3 24.9c-3.4 0-6.3 1.8-7.9 4.5.8 1.4 1.3 2.9 1.3 4.6s-.5 3.3-1.3 4.6c1.6 2.7 4.5 4.5 7.9 4.5 5 0 9.1-4.1 9.1-9.1s-4-9.1-9.1-9.1z"
        fill="#26358c" />
    <path
        d="M42.4 29.5c-1.6-2.7-4.5-4.5-7.9-4.5s-6.3 1.8-7.9 4.5c.8 1.4 1.3 2.9 1.3 4.6 0 1.7-.5 3.3-1.3 4.6 1.6 2.7 4.5 4.5 7.9 4.5s6.3-1.8 7.9-4.5c-.8-1.4-1.3-2.9-1.3-4.6.1-1.7.5-3.3 1.3-4.6z"
        fill="#0068b3" />
    <path
        d="M26.7 29.5c-1.6-2.7-4.5-4.5-7.9-4.5-5 0-9.1 4.1-9.1 9.1s4.1 9.1 9.1 9.1c3.4 0 6.3-1.8 7.9-4.5-.8-1.4-1.3-2.9-1.3-4.6 0-1.7.5-3.3 1.3-4.6z"
        fill="#36bcee" />
    <path class="st3"
        d="M26.7 38.7c.8-1.4 1.3-2.9 1.3-4.6 0-1.7-.5-3.3-1.3-4.6-.8 1.4-1.3 2.9-1.3 4.6 0 1.7.5 3.3 1.3 4.6z" />
    <path class="st3"
        d="M26.7 38.7c-.8-1.4-1.3-3-1.3-4.6s.4-3.2 1.3-4.6c.8 1.4 1.3 3 1.3 4.6 0 1.6-.5 3.2-1.3 4.6zm0-9.2c-.8 1.4-1.3 3-1.3 4.6s.4 3.2 1.3 4.6c.8-1.4 1.3-3 1.3-4.6s-.5-3.2-1.3-4.6z" />
    <path
        d="M42.4 38.7c.8-1.4 1.3-2.9 1.3-4.6 0-1.7-.5-3.3-1.3-4.6-.8 1.4-1.3 2.9-1.3 4.6.1 1.7.5 3.3 1.3 4.6z"
        fill="#002f60" />
    <path class="st5"
        d="M22.2 30.9h-2.7V39h-1.8v-8.1h-2.6v-1.7h7.1v1.7zM47.1 29.2h3.4c1.3 0 1.7 0 2.1.2 1 .3 1.7 1.2 1.7 2.2 0 .4-.1 1-.4 1.3-.3.4-.7.6-1.2.7 1.1.2 2 1.1 2 2.6 0 1.1-.5 2.1-1.7 2.5-.5.3-1 .3-2.1.3h-3.8v-9.8zm1.9 1.5v2.4H50.7c.5 0 .9 0 1.3-.2s.7-.6.7-1-.2-.7-.6-1c-.4-.2-.6-.2-1.9-.3-.2.1-1.2.1-1.2.1zm0 3.8v2.9h1.7c1.1 0 1.4 0 1.9-.3.3-.2.4-.6.4-1 0-.2 0-.5-.2-.7-.4-.8-1.5-.8-2.1-.8H49v-.1zM35.5 33.2l-1-.2c-.9-.2-1.8-.3-1.8-1.2 0-.7.9-1.2 1.8-1.2 1.5 0 2.1.9 2.5 1.4l1.4-1.2c-.7-.9-1.8-1.9-3.8-1.9-2.3 0-3.8 1.2-3.8 3 0 1.6 1.2 2.2 1.6 2.4.3.1.6.2 1.2.3l1.2.2c.9.2.9.2 1.1.3.3.1.7.3.7 1 0 .3-.1.8-.8 1.1-.3.1-.7.2-1.1.2-2 0-2.7-1-3-1.4l-1.5 1.1c.7 1.1 1.8 1.5 2.4 1.7.6.2 1.2.2 1.7.2 2.1 0 4.1-.9 4.1-3.1.3-1.9-1.6-2.4-2.9-2.7z" /></svg>