<svg viewBox="0 0 68 68" xmlns="http://www.w3.org/2000/svg">
    <path
        d="M59.3 33.6h-9.7c-2.1 0-4-1.2-4.6-3-1.7-5.1-6.8-6.9-6.8-6.9-1.8-.7-3.2-2.4-3.2-4.6V9.5c0-2.7 2.2-4.8 4.9-4.8s4.8 2 4.8 4.8l-.1 7.8L55.8 6c1.9-1.9 4.9-1.9 6.8 0 1.9 1.9 1.9 5 0 6.9l-11 11h7.6c2.7 0 4.9 2.2 4.9 4.9s-2.2 4.8-4.8 4.8zm-.1 11.8l-7.8-.1 11.2 11.2c1.9 1.9 1.9 4.9 0 6.8-1.9 1.9-4.9 1.9-6.8 0l-11-11v7.6c0 2.9-2.2 4.9-4.9 4.9S35 62.6 35 59.9v-9.7c0-2.1 1.3-4 3.1-4.6 5.1-1.7 6.8-6.8 6.8-6.8.7-1.8 2.5-3.2 4.6-3.2h9.7c2.7 0 4.9 2.2 4.9 4.9s-2 4.9-4.9 4.9zM28.1 64.7c-2.7 0-4.8-1.7-4.7-4.8l.1-7.8-11.2 11.2c-1.9 1.9-5 1.9-6.8 0-1.9-1.9-1.9-5 0-6.8l11-11H8.9c-2.7 0-4.9-2.2-4.9-4.9s2.1-4.9 4.9-4.9h9.7c2.1 0 3.9 1.2 4.6 3 1.7 5.2 6.7 6.9 6.7 6.9 1.9.7 3.2 2.4 3.2 4.6v9.7c-.1 2.7-2.3 4.8-5 4.8zm1.7-40.9c-5.1 1.8-6.8 6.8-6.8 6.8-.7 1.8-2.5 3.2-4.6 3.2H8.7c-2.7 0-4.9-2.2-4.9-4.9s1.8-4.8 4.9-4.8l7.8.1L5.3 13c-1.9-1.9-1.9-4.9 0-6.8 1.9-1.9 4.9-1.9 6.8 0l11 11V9.5c0-2.7 2.1-4.9 4.9-4.9 2.7 0 4.8 2.2 4.8 4.9v9.7c.1 2-1.2 3.9-3 4.6"
        fill="#003b7a" />
</svg>